<svg data-v-423bf9ae="" xmlns="http://www.w3.org/2000/svg" viewBox="0 0 726.064100254239 165" class="iconAbove"><!----><!----><!----><g data-v-423bf9ae="" id="8e3df093-1a6e-46bd-8d5b-f277317bc663" fill="white" transform="matrix(5.830903271297242,0,0,5.830903271297242,-4.08162822125513,83.17356475115383)"><path d="M4.17 13.94C6.44 13.94 7.71 12.61 7.71 11.09C7.71 9.79 6.96 9.03 5.75 8.58L4.65 8.09C3.77 7.77 3.15 7.57 3.15 7C3.15 6.45 3.61 6.15 4.41 6.15C5.19 6.15 5.77 6.41 6.40 6.89L7.45 5.59C6.62 4.79 5.52 4.37 4.41 4.37C2.44 4.37 1.06 5.57 1.06 7.11C1.06 8.46 1.99 9.24 3.01 9.62L4.19 10.14C5.07 10.47 5.60 10.67 5.60 11.26C5.60 11.82 5.18 12.17 4.23 12.17C3.43 12.17 2.58 11.77 1.89 11.20L0.70 12.61C1.68 13.50 2.94 13.94 4.17 13.94ZM13.83 13.94C14.73 13.94 15.48 13.75 16.10 13.55L15.74 12.07C15.33 12.22 14.88 12.33 14.35 12.33C13.34 12.33 12.89 11.90 12.89 10.81L12.89 8.25L15.83 8.25L15.83 6.64L12.89 6.64L12.89 3.70L10.93 4.54L10.93 6.64L9.09 6.64L9.09 8.25L10.84 8.25L10.84 10.82C10.84 12.68 11.62 13.94 13.83 13.94ZM21.42 13.94C22.34 13.94 23.38 13.62 24.16 13.12L23.49 11.87C22.88 12.21 22.33 12.38 21.70 12.38C20.68 12.38 19.82 11.90 19.68 10.81L24.36 10.81C24.39 10.63 24.44 10.25 24.44 9.88C24.44 7.94 23.32 6.45 21.18 6.45C19.33 6.45 17.57 7.87 17.57 10.21C17.57 12.57 19.26 13.94 21.42 13.94ZM19.66 9.44C19.84 8.48 20.48 8.04 21.22 8.04C22.16 8.04 22.58 8.60 22.58 9.44ZM30.73 13.94C31.60 13.94 32.09 13.79 32.82 13.55L32.35 12.04C31.92 12.22 31.58 12.28 31.26 12.28C30.69 12.28 30.14 11.98 30.14 11.10L30.14 3.65L26.07 3.65L26.07 5.28L28.08 5.28L28.08 11.00C28.08 12.81 28.98 13.94 30.73 13.94ZM39.13 13.94C40.00 13.94 40.49 13.79 41.22 13.55L40.75 12.04C40.32 12.22 39.98 12.28 39.66 12.28C39.09 12.28 38.54 11.98 38.54 11.10L38.54 3.65L34.47 3.65L34.47 5.28L36.48 5.28L36.48 11.00C36.48 12.81 37.38 13.94 39.13 13.94ZM45.14 13.94C46.03 13.94 46.90 13.51 47.60 12.96L47.66 12.96L47.81 13.78L49.49 13.78L49.49 9.66C49.49 7.50 48.30 6.45 46.35 6.45C45.16 6.45 44.06 6.87 43.39 7.43L44.11 8.78C44.62 8.37 45.28 8.11 45.95 8.11C46.89 8.11 47.36 8.51 47.43 9.18C44.14 9.39 42.85 10.21 42.85 11.80C42.85 13.01 43.74 13.94 45.14 13.94ZM45.79 12.35C45.21 12.35 44.83 12.12 44.83 11.65C44.83 11.00 45.39 10.54 47.43 10.42L47.43 11.65C46.94 12.05 46.41 12.35 45.79 12.35ZM53.52 13.94C54.52 13.94 55.24 13.47 55.86 12.74L55.92 12.74L56.07 13.78L57.75 13.78L57.75 6.64L55.69 6.64L55.69 11.34C55.22 12.00 54.85 12.19 54.33 12.19C53.56 12.19 53.33 11.76 53.33 10.78L53.33 6.64L51.27 6.64L51.27 11.05C51.27 12.85 51.94 13.94 53.52 13.94ZM59.32 13.78L61.47 13.78L62.16 12.56C62.37 12.14 62.59 11.73 62.80 11.33L62.86 11.33C63.11 11.73 63.41 12.17 63.66 12.56L64.46 13.78L66.67 13.78L64.26 10.29L66.53 6.64L64.37 6.64L63.76 7.81L63.18 9.03L63.13 9.03C62.89 8.64 62.61 8.22 62.40 7.81L61.68 6.64L59.47 6.64L61.73 10.07ZM80.40 13.94C81.56 13.94 82.64 13.41 83.26 12.82L83.26 8.58L80.08 8.58L80.08 10.26L81.41 10.26L81.41 11.87C81.21 12.07 80.86 12.17 80.51 12.17C79.07 12.17 78.34 11.05 78.34 9.14C78.34 7.27 79.24 6.15 80.43 6.15C81.16 6.15 81.58 6.41 81.97 6.82L83.10 5.54C82.52 4.94 81.66 4.37 80.43 4.37C78.06 4.37 76.22 6.12 76.22 9.21C76.22 12.31 78.06 13.94 80.40 13.94ZM89.53 13.94C90.40 13.94 90.89 13.79 91.62 13.55L91.15 12.04C90.72 12.22 90.38 12.28 90.06 12.28C89.49 12.28 88.94 11.98 88.94 11.10L88.94 3.65L84.87 3.65L84.87 5.28L86.88 5.28L86.88 11.00C86.88 12.81 87.78 13.94 89.53 13.94ZM96.60 13.94C98.43 13.94 100.14 12.59 100.14 10.21C100.14 7.83 98.43 6.45 96.60 6.45C94.77 6.45 93.06 7.83 93.06 10.21C93.06 12.59 94.77 13.94 96.60 13.94ZM96.60 12.28C95.65 12.28 95.17 11.47 95.17 10.21C95.17 8.95 95.65 8.12 96.60 8.12C97.55 8.12 98.03 8.95 98.03 10.21C98.03 11.47 97.55 12.28 96.60 12.28ZM105.53 13.94C107.09 13.94 108.54 12.53 108.54 10.08C108.54 7.88 107.48 6.45 105.74 6.45C105.07 6.45 104.36 6.78 103.81 7.29L103.87 6.16L103.87 3.65L101.81 3.65L101.81 13.78L103.42 13.78L103.59 12.99L103.64 12.99C104.22 13.62 104.89 13.94 105.53 13.94ZM105.07 12.26C104.71 12.26 104.26 12.14 103.87 11.77L103.87 8.83C104.30 8.36 104.71 8.13 105.15 8.13C106.02 8.13 106.43 8.82 106.43 10.12C106.43 11.61 105.83 12.26 105.07 12.26ZM112.34 13.94C113.23 13.94 114.10 13.51 114.80 12.96L114.86 12.96L115.01 13.78L116.69 13.78L116.69 9.66C116.69 7.50 115.50 6.45 113.55 6.45C112.36 6.45 111.26 6.87 110.59 7.43L111.31 8.78C111.82 8.37 112.48 8.11 113.15 8.11C114.09 8.11 114.56 8.51 114.63 9.18C111.34 9.39 110.05 10.21 110.05 11.80C110.05 13.01 110.94 13.94 112.34 13.94ZM112.99 12.35C112.41 12.35 112.03 12.12 112.03 11.65C112.03 11.00 112.59 10.54 114.63 10.42L114.63 11.65C114.14 12.05 113.61 12.35 112.99 12.35ZM123.13 13.94C124.00 13.94 124.49 13.79 125.22 13.55L124.75 12.04C124.32 12.22 123.98 12.28 123.66 12.28C123.09 12.28 122.54 11.98 122.54 11.10L122.54 3.65L118.47 3.65L118.47 5.28L120.48 5.28L120.48 11.00C120.48 12.81 121.38 13.94 123.13 13.94Z"></path></g><!----><g data-v-423bf9ae="" id="02861142-c802-45b0-a44b-64e00c1a30da" transform="matrix(1.0080584208170573,0,0,1.0080584208170573,311.27593736254346,-5.774733582926032)" stroke="none" fill="white"><path d="M71.171 23.182a1.5 1.5 0 01-1.489-1.704c.233-1.7-.382-3.373-1.689-4.59-1.237-1.154-3.011-1.653-4.867-1.373a1.499 1.499 0 11-.45-2.966c2.764-.418 5.45.362 7.361 2.144 2.03 1.891 2.983 4.513 2.616 7.192a1.497 1.497 0 01-1.482 1.297zM44.561 17.291c-.366 0-.733-.133-1.022-.402-1.238-1.154-3.011-1.653-4.867-1.373a1.5 1.5 0 11-.45-2.966c2.767-.421 5.45.361 7.362 2.143a1.5 1.5 0 01-1.023 2.598z"></path><path d="M74.191 30.205c2.942-2.744 4.562-6.404 4.562-10.308 0-3.901-1.621-7.56-4.562-10.301-2.644-2.463-6.203-3.819-10.022-3.819-4.007 0-8.087 1.507-11.194 4.136l-1.532 1.3-1.534-1.3c-3.104-2.627-7.183-4.134-11.19-4.134-3.82 0-7.379 1.356-10.022 3.819-2.943 2.742-4.563 6.402-4.563 10.304s1.62 7.561 4.562 10.303l20.407 19.02c.021.019.045.032.066.051L44.8 55.1a1.5 1.5 0 001.2 2.4h5.551c-.03 2.261-.701 4.899-2.746 7.593-5.955 7.844-5.36 21.069 1.384 30.764a1.5 1.5 0 102.463-1.713c-6.034-8.674-6.661-20.383-1.457-27.236 2.51-3.306 3.31-6.584 3.323-9.407h2.149a1.5 1.5 0 001.217-2.377l-4.193-5.826c.029-.025.063-.044.091-.07l20.409-19.023zm-43.45-2.195c-2.326-2.168-3.607-5.048-3.607-8.108 0-3.061 1.281-5.941 3.607-8.11 2.086-1.943 4.919-3.014 7.977-3.014 3.309 0 6.681 1.248 9.251 3.424l2.503 2.122c.56.474 1.38.474 1.94 0l2.5-2.121c2.573-2.176 5.946-3.425 9.255-3.425 3.103 0 5.861 1.042 7.977 3.014 2.326 2.167 3.606 5.046 3.607 8.106 0 3.062-1.281 5.943-3.607 8.113L51.736 47.033c-.141.133-.439.137-.585 0L30.741 28.01zM51.222 54.5H49l1.557-2.076.861-1.148 2.321 3.224h-2.517z"></path></g><!----></svg>